<?xml version="1.0" encoding="UTF-8" standalone="no"?>
<svg
   xmlns:dc="http://purl.org/dc/elements/1.1/"
   xmlns:cc="http://creativecommons.org/ns#"
   xmlns:rdf="http://www.w3.org/1999/02/22-rdf-syntax-ns#"
   xmlns:svg="http://www.w3.org/2000/svg"
   xmlns="http://www.w3.org/2000/svg"
   style="shape-rendering:crispEdges"
   id="svg8"
   version="1.1"
   viewBox="0 0 58.258785 64.159715"
   height="64.159714mm"
   width="58.258785mm">
  <defs
     id="defs2" />
  <metadata
     id="metadata5">
    <rdf:RDF>
      <cc:Work
         rdf:about="">
        <dc:format>image/svg+xml</dc:format>
        <dc:type
           rdf:resource="http://purl.org/dc/dcmitype/StillImage" />
        <dc:title></dc:title>
      </cc:Work>
    </rdf:RDF>
  </metadata>
  <g
     transform="translate(-22.175757,-15.46023)"
     id="layer1">
    <path
       style="fill:#010101;stroke-width:1"
       d="m 22.399397,79.313029 c -0.097,-0.09701 -0.17639,-3.593777 -0.17639,-7.770588 l -0.04725,-7.830438 1.039437,0.07224 c 0.5457,-0.0902 2.18281,-0.165828 3.63802,-0.168061 l 2.64583,-0.0041 5.41902,-5.407993 c 2.98046,-2.974398 5.45769,-5.524016 5.50496,-5.665819 0.0473,-0.141804 -2.09363,-2.531772 -4.75756,-5.31104 -2.66393,-2.779257 -5.05186,-5.436247 -5.30652,-5.904412 -0.35171,-0.646573 -0.46302,-1.475531 -0.46302,-3.448163 0,-2.696703 0.34845,-3.930684 1.20248,-4.258405 0.23556,-0.0904 4.0202,-0.16598 8.4103,-0.167967 8.17268,-0.0037 9.17263,-0.07538 9.17263,-0.657555 0,-0.184176 -2.40008,-2.640836 -5.33352,-5.459244 -6.50996,-6.254678 -7.36648,-7.276947 -7.36648,-8.792021 0,-0.844983 0.1922,-1.339753 0.81302,-2.092908 0.70659,-0.857225 0.96059,-0.986325 1.94053,-0.986325 1.09156,0 1.22807,0.102282 4.28022,3.207064 4.77612,4.858496 12.32319,12.285662 13.12181,12.913347 1.62627,1.278184 1.80484,1.930136 1.80484,6.58953 0,3.939899 -0.0383,4.279458 -0.51177,4.532833 -0.31577,0.168992 -3.22915,0.275275 -7.60677,0.277503 -7.28358,0.0037 -8.28563,0.08261 -8.28563,0.652439 0,0.181364 1.66688,2.06783 3.70417,4.192148 4.64827,4.846835 4.64225,4.820591 1.78594,7.776953 -1.05503,1.09198 -3.19815,3.113606 -4.7625,4.492498 -3.29844,2.907395 -3.56891,3.519849 -1.55443,3.519849 0.856262,0 2.674703,-0.01806 3.32867,0.0081 0.75231,0.0301 0.41079,1.455969 0.60225,1.963215 0.15486,0.410263 -0.19117,-0.07336 0,0 0.49752,0.190916 2.99525,-0.791672 5.76048,-2.26614 3.06043,-1.631868 5.24323,-2.203712 7.58209,-1.986338 2.00151,0.186021 3.35629,0.709562 6.57208,2.539706 2.73712,1.557721 4.57182,2.124139 6.86104,2.118164 1.97024,-0.0051 4.86979,-0.688104 6.63271,-1.562274 2.57261,-1.275668 2.38125,-1.376461 2.38125,1.25426 v 2.320189 l -1.91823,0.888675 c -3.86362,1.78993 -4.36372,1.920078 -7.00642,1.823389 -2.43914,-0.08924 -2.45676,-0.09488 -6.21956,-1.988204 -4.45174,-2.239978 -5.86721,-2.7315 -7.86608,-2.7315 -2.22023,0 -4.2826,0.624623 -7.88555,2.388272 -1.78578,0.874144 -3.683463,1.89441 -4.29234,2.007664 -0.904741,0.168285 -0.817381,0.516795 -0.942581,1.184217 0.07906,0.507472 -0.05112,1.248206 0.107126,1.664449 0.138363,0.721826 0.144325,0.739203 0.905795,0.59481 0.46987,-0.0891 2.58071,-1.017829 4.69076,-2.063846 l 3.83646,-1.901852 2.815916,-0.622129 3.004914,0.417308 2.11667,1.038942 c 1.16416,0.57142 2.71658,1.394868 3.4498,1.829885 3.96299,2.351198 7.94494,2.407576 12.79319,0.181128 1.07552,-0.493908 2.05778,-0.898015 2.18281,-0.898015 0.12503,0 0.22732,1.045163 0.22732,2.322582 v 2.322581 l -2.71198,1.438879 c -2.64892,1.405421 -2.77042,1.441196 -5.22552,1.538679 -2.89679,0.115022 -4.23831,-0.271743 -7.14375,-2.059557 -3.63032,-2.233863 -4.95129,-2.734503 -7.54062,-2.857846 -2.98687,-0.142282 -4.57215,0.347631 -8.88571,2.746033 -1.68569,0.937263 -3.94331,2.056775 -4.43948,2.199076 -1.00657,0.288679 -21.80091,0.13007 -22.08488,-0.153895 z m 40.26893,-37.075207 c -2.02093,-1.052412 -3.13907,-2.932803 -3.13907,-5.279009 0,-2.012276 0.56074,-3.260358 2.08251,-4.635185 2.629,-2.375141 7.03557,-1.753775 8.89534,1.254324 0.71654,1.158988 0.79611,1.505625 0.79611,3.468448 0,1.99846 -0.0667,2.275722 -0.79827,3.316566 -1.76453,2.510621 -5.08864,3.305889 -7.83662,1.874856 z"
       id="path883" />
  </g>
</svg>
