<?xml version="1.0" encoding="UTF-8" standalone="no"?>
<svg
   xmlns:dc="http://purl.org/dc/elements/1.1/"
   xmlns:cc="http://creativecommons.org/ns#"
   xmlns:rdf="http://www.w3.org/1999/02/22-rdf-syntax-ns#"
   xmlns:svg="http://www.w3.org/2000/svg"
   xmlns="http://www.w3.org/2000/svg"
   id="svg1493"
   version="1.1"
   viewBox="0 0 152.88762 152.8451"
   height="152.84509mm"
   width="152.88762mm">
  <defs
     id="defs1487" />
  <metadata
     id="metadata1490">
    <rdf:RDF>
      <cc:Work
         rdf:about="">
        <dc:format>image/svg+xml</dc:format>
        <dc:type
           rdf:resource="http://purl.org/dc/dcmitype/StillImage" />
        <dc:title></dc:title>
      </cc:Work>
    </rdf:RDF>
  </metadata>
  <g
     transform="translate(-324.68655,-211.47067)"
     id="layer1">
    <path
       style="fill:#0b0000;fill-opacity:1;stroke-width:1"
       d="m 328.51795,364.12105 c -1.23109,-0.36374 -2.78134,-1.80112 -3.3346,-3.09182 -0.48787,-1.13816 -0.50169,-2.83473 -0.49605,-60.87854 0.006,-58.36321 0.0173,-59.73158 0.51466,-60.76608 0.66895,-1.39136 1.02442,-1.80507 2.13005,-2.47906 l 0.92136,-0.56167 24.73854,-0.005 c 13.6062,-0.003 25.00644,-0.0764 25.33386,-0.16413 l 0.59531,-0.15954 0.002,-9.95717 c 7.9e-4,-6.03292 0.10917,-10.34495 0.27475,-10.94113 0.37156,-1.33787 1.33756,-2.41762 2.76194,-3.08716 l 1.18929,-0.55908 h 45.12488 c 44.33879,0 45.14264,0.009 46.14425,0.52004 1.47539,0.75269 2.87386,2.49544 3.06071,3.81422 0.0849,0.59934 0.11964,27.87877 0.0771,60.62095 l -0.0772,59.53125 -0.62039,0.99785 c -0.34122,0.54882 -1.04628,1.32273 -1.56681,1.71979 l -0.94642,0.72194 -25.42069,0.1323 -25.4207,0.13229 -0.13229,10.45104 -0.13229,10.45104 -0.70166,1.19347 c -0.43224,0.73521 -1.14339,1.44636 -1.85208,1.85208 l -1.15043,0.65862 -45.11146,0.0438 c -25.59262,0.0249 -45.4549,-0.0577 -45.90521,-0.19071 z m 84.78966,-10.28676 c 0.29641,-0.55384 0.40166,-106.00845 0.1069,-107.10836 l -0.15977,-0.59618 -39.19339,0.067 -39.1934,0.067 -0.0679,53.71041 c -0.0373,29.54074 -0.0113,53.85925 0.0578,54.04115 0.0998,0.26252 8.17413,0.33073 39.15073,0.33073 38.31213,0 39.03005,-0.009 39.29894,-0.51177 z m -72.77147,-3.70121 -0.7734,-0.77339 v -10.6999 -10.6999 l 0.69754,-0.69754 0.69754,-0.69754 10.74569,0.008 c 8.02978,0.006 10.8518,0.0899 11.1655,0.33073 0.99344,0.76275 1.0354,1.24769 1.0354,11.96694 v 10.4888 l -0.7734,0.77339 -0.77339,0.7734 h -10.62404 -10.62404 z m 18.74376,-11.43164 0.0703,-7.31025 -0.59944,-0.16062 c -0.77889,-0.2087 -12.85188,-0.20965 -13.63017,-10e-4 l -0.59532,0.15954 v 7.20108 c 0,3.9606 0.0813,7.28234 0.18056,7.38164 0.0993,0.0993 3.40329,0.14892 7.34219,0.11025 l 7.16163,-0.0703 z m 10.17203,9.88993 0.0764,-2.3151 h 19.31459 19.31458 l 0.0765,2.3151 0.0764,2.31511 h -19.46748 -19.46748 z m 0.12225,-7.64915 c -0.098,-0.098 -0.1781,-1.17029 -0.1781,-2.38296 v -2.20487 h 19.45718 19.45718 l -0.0764,2.31511 -0.0765,2.3151 -19.20263,0.0679 c -10.56144,0.0373 -19.28277,-0.0123 -19.38073,-0.11025 z m -0.1781,-12.12845 v -2.24896 h 2.24896 2.24896 v 2.24896 2.24896 h -2.24896 -2.24896 z m 9.78958,0 v -2.24896 h 14.55209 14.55208 v 2.24896 2.24896 h -14.55208 -14.55209 z m -35.71353,-20.0513 c -1.36975,-0.69306 -1.32926,0.17453 -1.26024,-27.00135 l 0.0644,-25.3568 0.74235,-0.6385 0.74236,-0.6385 h 30.3004 30.30039 l 0.77339,0.77339 0.7734,0.7734 v 25.4407 25.44071 l -0.7734,0.77339 -0.77339,0.7734 -30.11671,-0.004 c -23.62562,-0.003 -30.25815,-0.0755 -30.77295,-0.33594 z m 57.54166,-26.64766 v -22.0927 h -26.9875 -26.9875 l -0.0683,21.82811 c -0.0376,12.00547 -0.0113,21.97752 0.0583,22.16011 0.10067,0.26387 5.65225,0.31816 27.05584,0.26459 l 26.92918,-0.0674 z m -17.06563,10.4344 c -2.43391,-0.52568 -6.88427,-2.01845 -11.50937,-3.86055 -6.44947,-2.56871 -9.4538,-3.05934 -13.49365,-2.20363 -2.46253,0.5216 -2.60744,0.48535 -1.13148,-0.28307 1.95346,-1.017 4.01982,-1.44132 7.01895,-1.44132 4.27703,0 6.76475,0.63533 14.48265,3.69868 4.28693,1.70155 6.01791,2.11433 8.86624,2.11433 2.64711,0 5.09977,-0.50822 7.20681,-1.49334 0.83506,-0.39042 1.60082,-0.62731 1.70171,-0.52642 0.28,0.28 -1.32199,1.80819 -2.88372,2.75088 -2.65349,1.60169 -6.46385,2.06394 -10.25814,1.24444 z m 0.8419,-3.30341 c -0.77388,-0.13896 -3.92904,-1.19596 -7.01146,-2.34889 -3.08242,-1.15293 -6.61643,-2.30594 -7.85335,-2.56223 -2.45653,-0.50901 -6.5288,-0.6352 -8.57248,-0.26565 l -1.29644,0.23442 0.14811,-1.10422 c 0.17461,-1.30181 1.20832,-2.7624 2.3861,-3.37146 0.46202,-0.23891 1.45608,-0.43439 2.20904,-0.43439 1.90929,0 3.05892,0.76139 3.93006,2.60285 0.47441,1.00279 0.8354,1.44149 1.18618,1.44149 0.47082,0 0.49389,-0.16215 0.34823,-2.44739 -0.0995,-1.56123 -0.30884,-2.68227 -0.57813,-3.09606 -0.23217,-0.35676 -0.83885,-1.48785 -1.34817,-2.51354 l -0.92605,-1.86488 -2.77812,0.0883 c -4.71883,0.15002 -7.96421,1.09762 -8.44074,2.46457 -0.14675,0.42099 -0.64693,0.97131 -1.11151,1.22294 -0.46457,0.25163 -1.22976,0.78493 -1.70041,1.18512 -0.86636,0.73663 -1.44734,0.9302 -1.44734,0.48222 0,-0.13496 0.29765,-0.47951 0.66146,-0.76568 0.73627,-0.57915 0.86659,-1.10561 0.27369,-1.10561 -0.21327,0 -1.15549,0.422 -2.09381,0.93776 -0.93833,0.51577 -1.77329,0.82897 -1.85547,0.69599 -0.0822,-0.13297 0.56245,-0.80104 1.4325,-1.48459 0.87006,-0.68356 1.69987,-1.46321 1.84402,-1.73257 0.26356,-0.49245 3.60918,-2.21805 4.95559,-2.55598 0.39726,-0.0997 1.43956,-0.50296 2.31622,-0.89612 2.00533,-0.89934 7.18133,-2.37282 8.33519,-2.37282 0.74138,0 1.24214,0.36336 3.37285,2.4474 2.67387,2.61529 3.2049,3.41457 3.91644,5.89494 0.5768,2.01068 0.72301,2.18014 2.6382,3.05756 0.88094,0.4036 2.69137,1.67261 4.06769,2.85121 1.36411,1.16814 2.8921,2.31935 3.39553,2.55825 1.17876,0.55935 4.54838,0.56186 7.1723,0.005 2.15142,-0.45631 4.96187,-0.54455 5.19757,-0.16318 0.2592,0.41939 -1.59049,1.61651 -3.55133,2.29842 -2.13121,0.74117 -6.79244,1.05276 -9.22216,0.61648 z M 467.491,275.77868 c 0.0465,-37.49828 -0.0179,-53.91331 -0.21243,-54.10729 -0.34585,-0.34491 -66.64571,-0.26793 -66.99143,0.0778 -0.12888,0.12887 4.77933,3.80606 11.22906,8.41271 l 11.45801,8.18376 0.17882,1.18094 c 0.0984,0.64951 0.18766,21.13383 0.19844,45.52068 0.0108,24.38687 0.0997,44.41982 0.19752,44.51767 0.0978,0.0979 10.0098,0.14746 22.02657,0.11024 l 21.84865,-0.0677 z m -38.98052,50.16802 c -0.0754,-0.1966 -0.10181,-1.23928 -0.0586,-2.31707 l 0.0786,-1.95961 h 16.93333 16.93334 v 2.24896 2.24896 l -16.87474,0.0681 c -13.97533,0.0564 -16.89831,0.007 -17.01191,-0.28934 z m 0.004,-9.78035 c -0.0774,-0.20167 -0.10536,-1.24851 -0.0621,-2.3263 l 0.0786,-1.95962 2.19327,-0.077 2.19327,-0.077 -0.0766,2.32597 -0.0766,2.32597 -2.05452,0.0773 c -1.56124,0.0588 -2.08832,-0.0107 -2.19524,-0.28935 z m 9.78632,-0.008 c -0.0756,-0.197 -0.1021,-1.24002 -0.0589,-2.3178 l 0.0786,-1.95963 h 12.03854 12.03855 v 2.24896 2.24896 l -11.97967,0.0688 c -9.87685,0.0568 -12.00379,0.006 -12.11711,-0.28935 z m -9.78987,-9.79032 c -0.0754,-0.1966 -0.10181,-1.23928 -0.0586,-2.31707 l 0.0786,-1.95962 h 16.93333 16.93334 v 2.24896 2.24896 l -16.87474,0.0681 c -13.97533,0.0564 -16.89831,0.007 -17.01191,-0.28934 z m 0,-9.78958 c -0.0754,-0.1966 -0.10181,-1.23928 -0.0586,-2.31707 l 0.0786,-1.95962 h 16.93333 16.93334 v 2.24896 2.24895 l -16.87474,0.0681 c -13.97533,0.0564 -16.89831,0.007 -17.01191,-0.28934 z m -0.11231,-11.94961 v -2.24896 h 2.24896 2.24895 v 2.24896 2.24896 h -2.24895 -2.24896 z m 9.78958,-0.003 v -2.25163 l 12.10469,0.0688 12.10469,0.0688 0.0768,2.18281 0.0768,2.18282 h -12.18154 -12.18153 z m -9.67727,-7.89149 c -0.0754,-0.1966 -0.10181,-1.23928 -0.0586,-2.31706 l 0.0786,-1.95961 h 16.93333 16.93334 v 2.24895 2.24896 l -16.87474,0.0681 c -13.97533,0.0564 -16.89831,0.007 -17.01191,-0.28934 z m 0,-9.78958 c -0.0754,-0.1966 -0.10181,-1.23928 -0.0586,-2.31707 l 0.0786,-1.95961 h 16.93333 16.93334 v 2.24896 2.24896 l -16.87474,0.0681 c -13.97533,0.0564 -16.89831,0.007 -17.01191,-0.28935 z m -0.11231,-11.94959 v -2.24895 h 2.24896 2.24895 v 2.24895 2.24896 h -2.24895 -2.24896 z m 9.78958,-0.003 v -2.25163 l 12.10469,0.0688 12.10469,0.0688 0.0768,2.18281 0.0768,2.18281 h -12.18154 -12.18153 z m -9.67727,-7.09773 c -0.0754,-0.1966 -0.10181,-1.23928 -0.0586,-2.31707 l 0.0786,-1.95961 h 16.93333 16.93334 v 2.24896 2.24896 l -16.87474,0.0681 c -13.97533,0.0564 -16.89831,0.007 -17.01191,-0.28934 z m 0,-9.78959 c -0.0754,-0.19659 -0.10181,-1.23927 -0.0586,-2.31706 l 0.0786,-1.95961 h 16.93333 16.93334 v 2.24895 2.24896 l -16.87474,0.0681 c -13.97533,0.0564 -16.89831,0.007 -17.01191,-0.28934 z m -0.11231,-11.94959 v -2.24896 h 2.24896 2.24895 v 2.24896 2.24896 h -2.24895 -2.24896 z m 9.78958,-0.003 v -2.25163 l 12.10469,0.0688 12.10469,0.0688 0.0768,2.18282 0.0768,2.18281 h -12.18154 -12.18153 v -2.25163 z m -36.84323,10.02237 c 0.32742,-0.0877 0.58957,-0.29448 0.58255,-0.45941 -0.012,-0.28079 -11.71257,-8.74449 -12.51389,-9.05198 -0.56584,-0.21713 -0.69494,0.69961 -0.6989,4.96289 -0.003,3.18126 0.0716,3.95891 0.41216,4.29948 0.35204,0.35205 1.27467,0.41522 6.01927,0.41217 3.08192,-0.002 5.87139,-0.0754 6.19881,-0.16315 z"
       id="path2108" />
  </g>
</svg>
