<?xml version="1.0" encoding="UTF-8" standalone="no"?>
<svg
   xmlns:dc="http://purl.org/dc/elements/1.1/"
   xmlns:cc="http://creativecommons.org/ns#"
   xmlns:rdf="http://www.w3.org/1999/02/22-rdf-syntax-ns#"
   xmlns:svg="http://www.w3.org/2000/svg"
   xmlns="http://www.w3.org/2000/svg"
   id="svg913"
   version="1.1"
   viewBox="0 0 269.6553 346.56815"
   height="346.56815mm"
   width="269.6553mm">
  <defs
     id="defs907" />
  <metadata
     id="metadata910">
    <rdf:RDF>
      <cc:Work
         rdf:about="">
        <dc:format>image/svg+xml</dc:format>
        <dc:type
           rdf:resource="http://purl.org/dc/dcmitype/StillImage" />
        <dc:title></dc:title>
      </cc:Work>
    </rdf:RDF>
  </metadata>
  <g
     transform="translate(292.8259,189.6235)"
     id="layer1">
    <path
       d="m -93.341091,-189.6235 c -0.288986,8.7e-4 -0.563523,0.004 -0.852509,0.009 -11.22711,0.12643 -22.48312,3.61955 -31.51394,10.35828 -10.73584,7.7795 -17.90269,20.17412 -19.40542,33.33021 -1.47383,12.3426 2.21074,24.85715 8.92967,35.15517 -21.10466,-3.3927 -43.00547,-1.64722 -63.33999,4.8463 -1.60242,-2.96933 -2.81761,-6.44873 -4.01112,-9.69115 1.70935,-1.06203 4.16862,-1.23686 5.07459,-3.31034 1.42759,-2.71213 -0.90597,-5.39537 -1.63999,-7.94567 -0.643,-2.41304 -3.31756,-3.98368 -5.72193,-3.04158 -7.77951,3.18752 -15.59225,6.29556 -23.34141,9.55822 -3.11527,1.17906 -2.93321,5.14539 -1.41748,7.53386 0.88863,2.06915 1.47239,4.74805 3.91432,5.50953 2.14572,0.69934 3.96922,-0.78027 5.93288,-1.30189 1.43193,3.19041 2.67457,6.48052 4.00391,9.720052 -38.39181,18.406974 -66.89163,55.944831 -74.00502,97.96341882 -8.37193,45.61646518 8.7687,95.40878118 44.6498,125.04430918 24.7849,21.54392 57.72354,33.66689 90.59861,32.78548 43.51987,-0.46238 86.000836,-23.71131 109.798847,-60.152467 C -25.833924,67.083194 -18.493676,29.3705 -26.13736,-5.5245791 -32.639548,-36.749534 -50.628937,-65.464643 -76.03082,-84.764584 c -0.679118,-0.63577 -1.661671,-1.011452 -2.152947,-1.814833 10.620241,-2.001229 20.821453,-6.977571 28.306194,-14.856783 9.550993,-9.56977 14.666048,-23.43533 13.524553,-36.91942 -0.606871,-10.28069 -4.60933,-20.2088 -10.808083,-28.38711 -10.735836,-14.22173 -28.378441,-22.93539 -46.179988,-22.88048 z m 0.736915,9.53625 c 21.413874,0.0748 42.278675,16.10954 45.703161,37.65056 2.832064,14.79321 -3.901313,30.75102 -16.29882,39.23277 -7.860423,5.606327 -17.700402,8.220207 -27.294743,7.802622 -0.520175,0.08814 -0.245638,-0.495611 -0.173391,-0.770148 2.962108,-7.028144 5.909767,-14.067844 8.871875,-21.093104 3.251094,1.38858 6.516638,2.76127 9.796631,4.10794 1.416032,0.60398 2.962108,-0.40169 3.395587,-1.78738 3.612327,-8.56266 7.224654,-17.12965 10.779184,-25.71254 0.62132,-1.40881 -0.491277,-3.06614 -1.907309,-3.41726 -16.183225,-6.75361 -32.323102,-13.59391 -48.506329,-20.3374 -1.32933,-0.58953 -3.00545,0.2283 -3.38114,1.60676 -3.54008,8.49041 -7.1235,16.96349 -10.67803,25.44668 -0.54908,1.20507 -0.30344,2.80316 0.95365,3.47072 3.17885,1.42326 6.42994,2.71936 9.63769,4.06893 0.46238,0.10114 0.15894,0.64299 0.0867,0.94209 -2.9621,7.03681 -5.92421,14.07218 -8.85742,21.11766 -13.16332,-11.10862 -18.7552,-30.98076 -11.84843,-47.04839 5.63523,-14.35683 20.25793,-24.00608 35.444148,-25.07966 1.430482,-0.14045 2.860963,-0.20634 4.276996,-0.20143 z m -65.724124,83.518448 c 33.99344,-0.228299 67.703679,15.096637 89.970062,40.786062 16.775647,19.220469 27.092453,43.957685 28.840819,69.417365 2.745369,34.360455 -10.721386,69.573418 -35.473051,93.530375 -23.610169,23.42232 -57.4649,35.86318 -90.62461,33.65243 -23.79224,-1.57497 -47.0614,-10.47574 -65.79637,-25.22849 -30.41724,-23.494572 -47.75641,-62.536602 -45.09629,-100.856167 2.00411,-32.496494 18.01828,-63.850047 43.27423,-84.414303 19.64239,-16.087859 44.51109,-25.660526 69.88986,-26.739889 1.67178,-0.08814 3.34357,-0.135823 5.01535,-0.147383 z m -36.20996,17.061743 c -0.0824,0.0014 -0.1734,0.02312 -0.2572,0.05202 -2.72514,1.114041 -5.45606,2.232418 -8.17542,3.355129 2.13272,5.353468 4.41571,10.65203 6.52242,16.018503 2.91876,-0.93776 5.70169,-2.327784 8.57855,-3.407147 -2.08214,-5.273998 -4.26688,-10.513317 -6.39093,-15.77142 -0.0246,-0.190731 -0.14016,-0.248528 -0.27742,-0.247083 z m 74.32146,0.371347 c -2.12405,5.100606 -4.26255,10.192542 -6.40105,15.287368 -0.0867,0.267312 -0.28898,0.73547 0.13005,0.804827 2.74536,1.044685 5.40404,2.337898 8.16386,3.32334 2.22519,-5.330349 4.52263,-10.64047 6.67558,-16.002608 -2.88987,-1.04324 -5.63523,-2.563307 -8.56844,-3.412927 z m -6.79118,26.284736 c -0.53462,-0.03757 -1.43048,0.794712 -1.80616,1.313443 -2.97656,3.394142 -5.40404,7.215984 -8.00492,10.900557 -12.19521,18.480665 -23.24894,37.698245 -34.38068,56.829129 -3.41148,6.87787 -0.0838,15.952036 6.8533,19.145333 7.26078,3.814617 17.12388,-0.0289 19.92705,-7.715931 5.57743,-21.4427726 11.38605,-42.871096 15.76419,-64.617305 0.89586,-4.927214 1.97956,-9.874657 2.09515,-14.910241 0.0289,-0.667558 -0.15894,-0.9262 -0.44793,-0.944985 z m -128.81413,29.191937 c -1.1545,2.803166 -2.39426,5.562984 -3.47651,8.395048 5.36647,2.138498 10.65637,4.479286 16.0055,6.646682 1.06058,-2.875412 2.61532,-5.606332 3.4346,-8.55399 -5.31012,-2.138498 -10.5899,-4.739373 -15.96359,-6.48774 z m 196.351642,0.866959 c -0.07225,0 -0.144493,0.01445 -0.21674,0.04335 -5.273997,2.109599 -10.519096,4.305894 -15.764195,6.429942 1.127046,2.817615 2.311889,5.620781 3.467834,8.4383957 5.360693,-1.8928593 10.620241,-4.3058937 15.937587,-6.3721447 -0.520175,-2.51418 -1.950657,-4.883866 -2.759818,-7.369147 -0.231189,-0.346784 -0.231189,-1.141496 -0.664668,-1.170394 z M -243.77139,52.503264 c -0.0636,0 -0.13438,0.01445 -0.21385,0.0578 -5.23499,2.124048 -10.50031,4.219198 -15.70062,6.429942 1.14728,2.817615 2.35957,5.606332 3.45338,8.438396 5.38093,-1.994005 10.71706,-4.276995 16.01995,-6.502189 -0.75714,-2.514179 -1.94921,-4.898315 -2.84218,-7.383596 -0.20084,-0.346783 -0.27598,-1.054799 -0.71668,-1.04035 z m 171.556632,0.722465 c -1.285988,2.788717 -2.355237,5.678578 -3.597878,8.467295 5.317346,2.254092 10.634691,4.58043 16.009834,6.67558 1.170394,-2.788716 2.514179,-5.548534 3.467834,-8.423947 -5.23065,-2.369686 -10.591343,-4.508184 -15.87979,-6.718928 z M -197.18104,104.33293 c -2.30611,5.2451 -4.49663,10.5769 -6.6857,15.87979 2.68035,1.32934 5.6598,2.36969 8.44418,3.59788 2.25987,-5.3029 4.64401,-10.60579 6.65824,-16.00983 -2.80895,-1.1415 -5.55287,-2.48529 -8.41672,-3.46784 z m 77.99158,0.39013 c -0.0434,-0.0145 -0.11559,0 -0.18784,0.0578 -2.78872,1.06925 -5.56298,2.1674 -8.2939,3.36669 2.12405,5.34624 4.36369,10.67804 6.54553,16.00983 2.83207,-1.04035 5.67858,-2.19629 8.4384,-3.43893 -1.82061,-5.1873 -4.1614,-10.20121 -6.09761,-15.34517 -0.13004,-0.20229 -0.17339,-0.63577 -0.40458,-0.65022 z"
       id="path4"
       style="stroke-width:0.28222224" />
  </g>
</svg>
